<svg width="176" height="32" viewBox="0 0 176 32" fill="none" xmlns="http://www.w3.org/2000/svg">
  <g transform="translate(0 4)">
    <path
      d="M12 0.75l9.18 5.27v10.96L12 22.25 2.82 16.98V6.02L12 0.75z"
      fill="#261F49"
      stroke="#FFFFFF"
      stroke-width="1.5"
      stroke-linejoin="round"
    />
    <path
      d="M12 6.1c1.66 1.64 2.46 2.44 4.1 4.1-1.64 1.66-2.44 2.46-4.1 4.1-1.66-1.64-2.46-2.44-4.1-4.1 1.64-1.66 2.44-2.46 4.1-4.1z"
      fill="#FFFFFF"
    />
    <path
      d="M22.65 3.65l0.86-1.72 0.86 1.72 1.9 0.32-1.38 1.43 0.33 1.96-1.71-0.9-1.67 0.9 0.3-1.96-1.4-1.43 1.91-0.32z"
      fill="#FFFFFF"
    />
  </g>
  <text
    x="36"
    y="21"
    font-family="-apple-system, BlinkMacSystemFont, 'Segoe UI', Helvetica, Arial, sans-serif"
    font-size="16"
    font-weight="600"
    letter-spacing="-0.01em"
    fill="#1F183C"
  >Heroku AI</text>
</svg>
